<svg height='100px' width='100px'  fill="#000000" xmlns="http://www.w3.org/2000/svg" xmlns:xlink="http://www.w3.org/1999/xlink" version="1.1" x="0px" y="0px" viewBox="0 0 100 100" enable-background="new 0 0 100 100" xml:space="preserve"><g><path d="M75.535,72.101c-1.477-0.596-2.833-1.074-3.752-1.43c-10.763-4.15,2.262-3.877-2.316-8.528   c-5.576-5.664-13.897,5.132-17.696,3.389c-5.045-2.316,0.639-15.933,1.82-19.101c3.478-9.321,13.765-21.098,20.901-28.298   c0.262-0.935,0.33-1.885,0.126-2.834c-1.298-3.018-1.524-7.537-4.722-9.375c-17.85,10.153-31.477,25.457-36.876,43.486   c-1.32,4.407-3.203,12.223-8.983,13.378c-4.757,0.95-7.81-5.342-12.502-4.222c-5.292,1.261-3.969,6.65-0.451,9.31   c2.412,1.824,9.29,2.289,9.878,5.615c0.577,3.27-6.575,7.02-7.634,10.043c5.228,3.258,10.747-2.85,16.156-0.246   c2.254,1.084,1.724,4.769,4.662,5.77c3.904,1.327,1.901-4.287,7.095-4.332c7.034-0.06,13.266,8.008,21.022,8.754   c5.858,0.565,10.934,2.225,11.62-4.552c0.301-2.975-2.009-5.813-3.778-7.822c4.046-0.52,9.382,3.418,12.16,0.921   C87.199,77.592,80.639,74.156,75.535,72.101z"></path><path d="M80.678,61.594c-0.048-0.098-0.082-0.198-0.123-0.298c-0.284,0.325-0.521,0.688-0.688,1.109L80.678,61.594z"></path><path d="M91.868,54.475c-2.102-7.616-14.014,0.309-11.313,6.821C83.708,57.688,93.243,59.461,91.868,54.475z"></path><path d="M19.006,48.614c2.414,1.501,4.493,3.257,5.514,5.617c-1.973-4.562-1.492-12.262-9.551-12.957   c-2.935-0.253-6.659,1.048-4.114,4.334C11.856,46.901,17.15,47.46,19.006,48.614z"></path></g></svg>