<svg width="65" height="192" viewBox="0 0 65 192" fill="none" xmlns="http://www.w3.org/2000/svg">
<path d="M54.2707 24.3472C62.2463 19.0061 67.3217 4 31.0688 4C15.5852 4 4 10.7376 4 17.48C4 24.2225 24.0965 28.2372 43.623 26.6565" stroke="#773815" stroke-width="8"/>
<path d="M42.9307 18.2789C47.2034 16.3682 49.9223 11 30.5012 11C22.2064 11 16 13.4103 16 15.8223C16 18.2343 27.7822 21.6455 36.8454 19.0978" stroke="#773815" stroke-width="4"/>
<path d="M47.3752 187.66L43.5134 22.3258C43.5134 22.3258 37.8443 27.805 21.0132 26.026C4.18213 24.247 0.5 17.5 0.5 17.5L8.03503 179.019C19.7965 193.251 27.8791 195.218 47.3752 187.66Z" fill="#773815"/>
<path d="M58.6047 185C62.9007 183.593 64.3518 181.894 65 177.014L63.5 14.5C62.0742 18.4612 55.7919 19.6223 52.5 21L58.6047 185Z" fill="#773815"/>
</svg>
