<svg height='100px' width='100px'  fill="#000000" xmlns="http://www.w3.org/2000/svg" xmlns:xlink="http://www.w3.org/1999/xlink" version="1.1" x="0px" y="0px" viewBox="0 0 100 100" style="enable-background:new 0 0 100 100;" xml:space="preserve"><path d="M32.5,79.9c-1-1.9-2.1-3.8-2.6-4.5c-0.1-0.1-0.1-0.2-0.2-0.3c0-0.6,0-1.1-0.1-1.7c-0.1-0.8-0.3-1.6-0.7-2.4l0-0.3  c0-0.5,0.7-2,1.1-3c1.4-3.4,2.8-6.8,0.1-8.1c-0.4-0.2-0.8-0.2-1.3-0.2h0c-1.4,0-4.2,0.7-6.2,2.2c-0.8,0.6-1.4,1.3-1.9,2  c-1.3-3.2-2.5-7-2.6-7.7c0-1.2-0.8-3.2-2.2-4.5c-0.8-0.8-1.8-1.2-2.7-1.1c-1.2,0.1-5.2,0.8-5.9,6.7c-0.2,2,0.2,4.5,0.7,6.8  c-0.3,0-0.5,0-0.8,0h0c-1.9,0-2.8,0.8-3.2,1.5c-1.5,2.2,0.8,4.7,2,6.1l0.1,0.1c0.2,0.2,0.7,0.9,1.2,1.5c1.5,1.9,2.1,2.6,2.5,3  c-0.1,0.1-0.3,0.3-0.4,0.5c-0.7,1.1-4.8,10-1.8,12.4c0.5,0.4,1.2,0.6,1.8,0.6c1.7,0,3.3-1.4,5-2.8c0.7-0.6,1.5-1.3,2-1.6  c0.1,0,0.1-0.1,0.2-0.1c0.9,0.3,1.9,0.5,2.8,0.5c0.5,0,1.1,0,1.6-0.1l0.6,0.2c0.6,0.2,5.6,2,8.6,2c2.1,0,3-0.9,3.4-1.7  C34.4,84.6,34.1,83,32.5,79.9z M23.8,63.1c1.6-1.2,3.9-1.8,5-1.8c0.2,0,0.3,0,0.4,0.1c1.2,0.6-0.8,4.7-1.9,7.4  c-1.2-1.3-2.7-2.1-4.3-2.1c-0.6,0-1.3,0-2.1,0.1C21.5,65.7,22.4,64.2,23.8,63.1z M9.4,57.3c0.5-4.1,2.7-4.9,4-5  c0.4,0,0.9,0.3,1.2,0.6c0.9,0.9,1.5,2.4,1.5,3c0,1.2,1.6,6,3.2,9.7c-0.4,0.7-0.6,1.3-0.7,1.5c0,0.1,0,0.1-0.1,0.2  c-0.3,0.1-0.6,0.1-0.8,0.2L17.2,67c-1.3-0.7-4.2-2.1-6.9-2.9C9.7,61.9,9.2,59.2,9.4,57.3z M7.7,70.1c-0.7-0.8-2.6-2.9-1.9-3.8  c0.3-0.4,0.8-0.6,1.6-0.6c2.1,0,5.5,1.3,7.7,2.4c-0.8,0.3-1.5,0.5-2.1,0.7c-2.1,0.7-2.7,2.7-2.8,4.4C9.3,72.1,8.1,70.6,7.7,70.1z   M9.5,87.3c-0.2,0-0.4-0.1-0.6-0.2c-0.9-0.7,0.4-5.8,1.8-8.8c0.7,2.3,2,4.2,3.9,5.5c0,0,0.1,0,0.1,0C13,85.1,10.8,87.3,9.5,87.3z   M15.7,82.1c-2.1-1.4-3.4-4-3.5-6.8l0-0.1c0,0-0.6-3.8,1.4-4.5c1.4-0.5,6.3-2.1,9.2-2.1c0.1,0,0.1,0,0.2,0c2.1,0.1,4.2,2.3,4.5,5  c0.6,4.7-1.2,7.9-5.4,9.3C19.9,83.7,17.6,83.4,15.7,82.1z M32,84.9c-0.2,0.4-0.8,0.5-1.6,0.5c-1.7,0-4.4-0.7-6.1-1.3  c2.6-1.3,4.2-3.3,4.9-5.9C30.6,80.5,32.5,84,32,84.9z"></path><path d="M94.3,81.3C94.2,81.2,94.1,81,94,81c0-0.2-0.1-0.7-0.1-1.1c-0.2-1.7-0.4-4.2-1.5-6c-0.3-0.4-0.9-1.4-1.9-2.5  c0.1,0,0.1,0,0.2,0l2.8-0.1l-1-2.6c-1-2.6-3.4-4-6.7-4c-1.2,0-2.3,0.2-3,0.4c-0.8,0.2-1.5,0.5-2.3,0.9c-0.6,0.3-1.6,0.8-2,0.8  c-0.9-0.4-4.8-2.6-8.2-4.5c-0.6-0.4-1.2-0.7-1.9-1.1c-0.4,0.6-0.8,1.1-1.3,1.6c5.2,3,10.1,5.8,10.9,6c0.1,0,0.3,0,0.4,0  c1.5,0,3.4-1.4,4.8-1.7c0.7-0.2,1.6-0.3,2.5-0.3c1.9,0,4,0.6,4.8,2.7c-3.2,0.1-8.3,0.5-8.5,1.7c0.5,1.2,1.8,4.9,1.2,5.6  s-6.2,1.8-6.5,2.1c-0.3,0.3-0.9,6.3,0.3,9.5c-0.4,0.1-0.7,0.1-1,0.1c-1.4,0-1.6-0.8-2-1.5c-0.5-0.8-0.9-8.3-1.3-8.9  c-0.3-0.5-9.9-5.1-15.4-7.8c-0.7,0.5-1.4,0.9-2.1,1.2c1.3,0.6,3,1.5,4.8,2.3c3.8,1.8,9.2,4.5,11,5.5c0.1,0.8,0.3,2.1,0.4,3.1  c0.4,3.8,0.6,4.9,1,5.6c0,0.1,0.1,0.2,0.1,0.2c0.4,0.7,1.2,2.3,3.6,2.3c0.4,0,0.8,0,1.3-0.1l2.4-0.4l-0.8-2.2  c-0.1-0.2-0.1-0.4-0.2-0.6c1.6,1.1,3.7,2.3,6,2.4c0.2,0,0.5,0,0.7,0c3.4,0,5.4-1.3,6.3-1.9c0.1-0.1,0.2-0.2,0.3-0.2  c0.1,0,0.2-0.1,0.4-0.1c0.9-0.2,2.5-0.5,3.2-1.9C96.2,83.8,95,82.2,94.3,81.3z M93.6,84.4c-0.2,0.5-1.2,0.7-1.8,0.8  c-0.3,0.1-0.5,0.1-0.6,0.2c-0.2,0.1-0.4,0.2-0.7,0.4c-0.8,0.5-2.6,1.7-5.7,1.5c-2.7-0.1-5.2-2.1-6.5-3.3c-0.1-1.4,0-2.9,0.1-3.7  c0.4-0.1,0.8-0.2,1.2-0.3c3.4-0.9,4.5-1.3,5.2-2c1.1-1.3,0.5-4-0.2-6c0.8-0.2,1.9-0.3,3.3-0.4c1,1,2,2.3,2.8,3.5  c0.9,1.3,1.1,3.7,1.2,5.1c0.1,1,0.1,1.5,0.3,1.8c0.1,0.2,0.2,0.4,0.4,0.6C93.4,83.5,93.8,84.2,93.6,84.4z M86.4,52.7  c-0.5-0.9-1.1-2.1-1.6-3.2c2.6-2.3,3.8-6.6,2.8-10.9c-1.4-5.7-5-8.5-11.2-8.5h0c-0.4,0-0.8,0-1.2,0c-5.2,0.3-7.6,3.7-8.5,6.5  c-0.3,0-0.6,0-0.9,0c-0.6,0-1.3,0.1-2,0.1c-1.4,0-1.9-0.2-1.9-0.2c-0.9-0.5-1.6-0.8-2.4-0.8c-0.7,0-1.3,0.3-1.7,0.7  c-0.7,0.7-0.7,1.7-0.7,2.3c0.1,2.1,2.8,5.9,4.6,7.1c0.7,0.5,1.6,0.9,2.4,1.2c-1,2.2-3.1,6.4-4.9,8.9c-1-0.5-2-1-2.7-1.4  C53,53,45.9,51,43.6,50.3l-0.5-0.1c-0.4-0.1-0.9-0.4-1.5-0.7c-0.9-0.5-1.8-0.9-2.7-1.2c-0.3-0.1-0.6-0.1-0.9-0.1h0  c-2.7,0-4.1,2.9-4.5,3.8c-1.3,2.7-0.8,4.6-0.3,5.7c0.7,1.4,2.6,2.2,5.2,3.2c0.5,0.2,1.2,0.4,1.4,0.5c0.2,0.1,0.8,0.6,1.5,1.1  c0.7,0.5,1.6,1.1,2.5,1.8c-0.4,0-0.7,0.1-1,0.2c-1.1,0.5-1.8,1.5-2.1,2.8c-0.3,1.6,0.2,3.5,1.4,4.6c1.9,1.9,4.4,2,6.1,2  c2.7,0,7.6-1.4,12.9-5.2c1.9-1.4,4.7-4.1,7.4-6.7c0.9-0.9,1.8-1.7,2.6-2.5c0.7,0.3,1.3,0.5,1.8,0.5h0.1c1.5,0,2.7-1.4,3.6-3.8  c0.4,0.4,0.8,0.7,1.2,1.1c1.8,1.4,4.5,1.8,6.4,1.8c0.8,0,3.4,0,3.8-2.1C88.2,56,87.7,55.1,86.4,52.7z M75.4,32.2c0.4,0,0.7,0,1,0  c5.8,0,8.2,2.7,9.2,7c1.1,4.5-0.8,9.2-4.4,10.1c-0.4,0.1-1,0.2-1.6,0.2c-4.1,0-11.2-2.9-11.4-10.6C68.4,38.8,68.9,32.5,75.4,32.2z   M40.7,59.7c-0.9-0.6-5.2-1.7-5.9-2.9c-0.5-0.9-0.5-2.2,0.3-3.9c0.7-1.6,1.6-2.7,2.7-2.7c0.1,0,0.3,0,0.4,0.1c1.3,0.3,3,1.5,4.2,1.8  s9.5,2.6,13.2,4.3c0.7,0.3,1.4,0.7,2.3,1.1c-2.8,3-7.9,6.9-9.3,7.6C45,62.8,41.4,60.1,40.7,59.7z M59.8,67.1  c-5,3.6-9.5,4.9-11.7,4.9h0c-1.8,0-3.5-0.2-4.7-1.4s-1.2-3.6,0.1-4.2c0.2-0.1,0.4-0.1,0.6-0.1c1.2,0,3,1,4.4,1c0.2,0,0.4,0,0.6-0.1  c1.5-0.5,8.5-5.9,11.2-9.2c2.1-2.6,4.7-7.9,5.8-10.3c0.1,0,0.2,0.1,0.4,0.1c-0.2,1.3-0.4,3.2-0.1,5c0.4,2.5,1.6,4.4,3,5.5  C66.2,61.4,62.2,65.5,59.8,67.1z M84.1,57c-1.6,0-3.8-0.4-5.2-1.5c-2-1.5-2.5-4-2.5-4c0-0.1,0-0.1-0.1-0.1c-0.3,0-1.1,1.7-1.5,3.2  c-0.5,1.7-1.2,3.3-1.9,3.3h0c-0.8,0-3.9-1.5-4.5-5.5c-0.4-2.7,0.4-5.6,0.4-6c-0.1-0.3-3.8-0.8-5.9-2.2c-1.4-0.9-3.7-4.2-3.7-5.5  c0-0.7,0.1-1,0.5-1c0.3,0,0.8,0.2,1.4,0.6c0.7,0.4,1.7,0.6,2.8,0.6c0.9,0,1.8,0,2.5,0c0.3,8.5,8,12.4,13.4,12.4c0.8,0,1.4-0.1,2-0.2  c0.4-0.1,0.9-0.3,1.3-0.5c1.2,2.5,3,5.4,2.9,6C85.9,56.9,85.1,57,84.1,57z"></path><path d="M57.7,9.1c-0.1-0.1-0.2-0.3-0.3-0.4c-0.7-1-1.8-1.5-3-1.5c-0.3,0-0.6,0-0.9,0.1c-2.2,0.6-5,2.2-8,3.9  c-2.4,1.4-4.8,2.8-6.8,3.6c-0.6,0.2-1.2,0.5-1.9,0.8c-0.9,0.4-2.4,1-3.5,1.4c-1.5-3.1-4.4-6.3-5.3-6.8l-0.4-0.2l-0.5,0  c-1.4,0-2.3,1-3.3,3.9c-0.1,0.4-0.4,1-0.6,1.8c-3.7,0.4-5.8,2.4-7,4.5c-1.6,0.7-2.6,1.7-2.3,3.4c0.1,0.3,0.1,0.7,0.6,1.2  C13.6,28.4,15,37,23,39.1c0.5,0.1,1,0.2,1.5,0.3c0.5,2.1,1.2,4.3,2.3,5c0.3,0.2,0.7,0.3,1.1,0.3c1.3,0,2.4-1,4-3.6  c0.5-0.8,1-1.7,1.3-2.5c3.1-1.5,4.7-4.1,5.5-5.9c0-0.1,0.1-0.2,0.1-0.3c1.6-0.5,3.6-1.5,4.1-2.7c0.3-0.9,0.2-1.7-0.6-2.7  c2.8-1.3,6.9-3.3,8.6-4.2c1.7-0.9,8.3-6,8.3-9.9C59.3,11.1,58.3,10,57.7,9.1z M22.6,17.9c0,0.2,0,0.4-0.1,0.6  c-0.6,0.2-1.7,0.5-2.4,0.6c-0.2,0.1-0.5,0.1-0.7,0.2C20.3,18.6,21.3,18.1,22.6,17.9z M23.5,37.1c-6-1.6-7.4-7.7-7.2-10.8  c1.5,1,3.8,2.3,7.8,4.3c0,0.3,0,0.5-0.1,0.8c-0.1,1.2-0.2,2.9-0.1,4.5c0,0.4,0.1,0.8,0.2,1.3C23.8,37.2,23.7,37.2,23.5,37.1z   M34.2,35.6c0-0.2,0.1-0.3,0.1-0.4c0.1-0.6,0.3-1.4,0.5-2c0.3,0,0.6-0.1,0.9-0.1c0.2,0,0.5-0.1,0.7-0.1  C35.9,33.8,35.2,34.8,34.2,35.6z M50,21c-2.6,1.4-11.1,5.4-11.1,5.4s2.4,1.9,2.2,2.5c-0.1,0.3-0.9,0.8-1.9,1.2  c-0.6,0.3-1.3,0.5-2,0.7c-0.2,0-0.3,0.1-0.5,0.1c-1.6,0.3-3.3,0.4-3.5,0.8c-0.5,0.9-0.8,3.2-1.2,4.8c0,0.2-0.1,0.4-0.3,0.7  c-0.3,0.7-0.7,1.6-1.2,2.4c-0.9,1.6-2.1,3.2-2.6,3.2c0,0-0.1,0-0.1,0c-0.4-0.2-0.8-1.5-1.2-3c-0.2-0.7-0.3-1.4-0.4-2  c-0.1-0.8-0.2-1.5-0.3-1.9c-0.3-2.9,0.5-6.1,0-6.4c-0.5-0.3-6.8-3.3-9.2-5.1c-0.5-0.4-0.8-0.7-0.9-0.9c-0.1-0.5,0.6-1,1.7-1.4  c2.6-0.9,7-1.5,7-2.4c0-0.5,0.1-1.1,0.2-1.8c0.1-0.7,0.3-1.3,0.5-2c0.6-2,1.5-3.7,1.8-3.7c0,0,0,0,0,0c0.4,0.2,2.9,2.8,4.2,5.5  c0.3,0.5,0.5,0.8,0.6,1.3c0,0.1,0.1,0.1,0.3,0.1h0.1c0,0,0,0,0,0c0.3,0,0.7,0,1.2-0.1c1.7-0.5,4.3-1.7,5.9-2.3  c4.7-1.9,11-6.4,14.6-7.4c0.1,0,0.3,0,0.4,0c0.5,0,1.1,0.3,1.4,0.7c0.6,0.9,1.5,1.8,1.5,2.9C57.3,15.4,51.9,19.9,50,21z"></path></svg>