<svg height='100px' width='100px'  fill="#000000" xmlns="http://www.w3.org/2000/svg" xmlns:xlink="http://www.w3.org/1999/xlink" version="1.1" x="0px" y="0px" viewBox="0 0 100 100" enable-background="new 0 0 100 100" xml:space="preserve"><path fill="#000000" d="M33.96,47.944c0.828,2.105,1.547,4.28,2.144,6.501c0.139,0,0.266,0.01,0.407,0.01  c9.562-28.75-18.61-45-31.099-49.455c5.881,18.022-0.637,46.402,26.45,49.212c-0.993-5.391-2.842-10.707-5.184-15.792  c-3.211-6.925-7.396-13.456-12.186-19.529c5.371,5.567,10.241,11.693,14.243,18.446C30.726,40.715,32.506,44.246,33.96,47.944z   M92.337,8.799C75.938,33.235,17.954,41.606,39.744,93.511c4.981-7.04,9.812-14.211,14.462-21.488  c3.06-4.803,6.034-9.66,8.873-14.603c2.827-4.946,5.535-9.97,7.934-15.161c-1.8,5.431-3.935,10.76-6.204,16.027  c-2.276,5.267-4.704,10.471-7.224,15.63C54.104,81.021,50.456,88.041,46.67,95C100.901,76.547,96.466,29.445,92.337,8.799z"></path></svg>