<svg height='100px' width='100px'  fill="#000000" xmlns="http://www.w3.org/2000/svg" xmlns:xlink="http://www.w3.org/1999/xlink" version="1.1" x="0px" y="0px" viewBox="0 0 100 100" enable-background="new 0 0 100 100" xml:space="preserve"><path d="M88.546,12.313c-2.119-2.119-4.846-3.239-7.887-3.239c-5.623,0-12.203,3.729-19.557,11.084  c-8.814,8.814-12.051,17.263-14.191,22.854c-0.846,2.203-1.643,4.284-2.338,4.982c-2.438,2.439-2.563,6.283-0.277,8.569  c1.059,1.057,2.49,1.639,4.031,1.64c1.666,0,3.318-0.699,4.539-1.918c0.697-0.697,2.779-1.495,4.982-2.339  c5.59-2.142,14.037-5.377,22.852-14.191c5.725-5.725,9.273-11.014,10.547-15.719C92.833,18.167,90.653,14.422,88.546,12.313z   M86.419,22.73c-1.025,3.797-4.227,8.462-9.254,13.489c-4.762,4.763-9.445,7.753-13.555,9.819l-0.688-1.468  c-0.178-0.375-0.623-0.534-0.998-0.361c-0.375,0.176-0.537,0.622-0.361,0.998l0.695,1.487c-1.092,0.514-2.139,0.969-3.123,1.373  l-0.852-3.411c-0.102-0.401-0.512-0.647-0.91-0.546c-0.402,0.101-0.646,0.508-0.547,0.909l0.902,3.61  c-0.58,0.228-1.141,0.443-1.668,0.646c-0.637,0.244-1.229,0.473-1.793,0.696l-0.102-2.131c-0.02-0.414-0.359-0.752-0.785-0.713  c-0.414,0.02-0.732,0.371-0.713,0.785l0.127,2.673c-1.441,0.638-2.594,1.292-3.465,2.162c-0.289,0.288-0.654,0.454-1.004,0.454  c-0.146,0-0.35-0.031-0.496-0.177c-0.289-0.288-0.246-0.975,0.277-1.498c1.449-1.449,2.299-3.664,3.471-6.729  c1.99-5.194,4.996-13.045,13.059-21.106c7.951-7.95,13.102-9.619,16.021-9.619c1.734,0,3.156,0.58,4.352,1.774  C86.743,17.581,87.204,19.832,86.419,22.73z"></path><path d="M84.403,71.205c-0.986,0-3.021-0.908-5.178-1.87c-5.467-2.439-13.727-6.125-26.191-6.125  c-21.711,0-24.953,8.683-24.953,13.858s3.242,13.857,24.953,13.857c12.461,0,20.723-3.686,26.189-6.124  c2.156-0.962,4.193-1.87,5.182-1.87c3.447-0.002,6.254-2.632,6.254-5.863C90.659,73.835,87.853,71.205,84.403,71.205z   M84.403,77.932c-1.186,0-2.412,0.329-3.813,0.859L79.659,76.8c-0.178-0.375-0.625-0.534-1-0.361  c-0.375,0.176-0.535,0.622-0.361,0.998l0.898,1.917c-0.631,0.268-1.295,0.563-2.008,0.882c-0.385,0.171-0.787,0.351-1.201,0.532  l-0.971-3.882c-0.1-0.402-0.508-0.646-0.908-0.546c-0.402,0.101-0.646,0.508-0.547,0.909l1.031,4.122  c-1.092,0.463-2.275,0.939-3.561,1.403l-0.131-2.704c-0.02-0.414-0.373-0.736-0.785-0.713c-0.412,0.02-0.732,0.371-0.713,0.785  l0.15,3.143c-4.365,1.444-9.789,2.641-16.52,2.641c-12.68,0-19.953-3.229-19.953-8.857c0-5.63,7.273-8.858,19.953-8.858  c11.398,0,19.074,3.425,24.154,5.691c2.998,1.337,5.164,2.304,7.215,2.304c0.74,0,1.256,0.455,1.256,0.863  S85.142,77.932,84.403,77.932z"></path><path d="M37.601,49.923c4.504-11.623,4.053-20.659,3.752-26.639c-0.117-2.356-0.229-4.582,0.127-5.501  c1.246-3.216-0.191-6.782-3.207-7.951c-0.641-0.248-1.314-0.374-2.004-0.374c-2.477,0-4.775,1.644-5.723,4.089  c-0.357,0.919-1.939,2.489-3.615,4.151c-4.248,4.216-10.67,10.587-15.176,22.21c-7.842,20.243-0.918,26.403,3.906,28.273  c1.307,0.507,2.65,0.764,3.994,0.764h0.002C24.479,68.945,31.509,65.644,37.601,49.923z M19.655,63.945  c-0.723,0-1.459-0.144-2.188-0.426c-5.246-2.034-5.631-9.981-1.051-21.805c4.121-10.63,10.088-16.55,14.035-20.467  c2.332-2.312,4.014-3.982,4.756-5.895c0.227-0.588,0.705-0.896,1.061-0.896c0.07,0,0.135,0.012,0.197,0.036  c0.381,0.147,0.619,0.793,0.352,1.482c-0.74,1.912-0.621,4.28-0.457,7.558c0.277,5.556,0.697,13.951-3.422,24.582  C28.983,58.323,24.267,63.945,19.655,63.945z"></path><path d="M31.853,32.157c-0.818-0.102-1.576,0.461-1.689,1.282c-0.426,3.085-1.189,7.341-3.346,12.908  c-2.361,6.085-4.197,8.707-5.322,9.834c-0.586,0.587-0.584,1.536,0.002,2.121c0.293,0.293,0.676,0.438,1.061,0.438  s0.768-0.146,1.061-0.44c1.932-1.937,3.949-5.593,5.996-10.869c2.27-5.857,3.074-10.336,3.521-13.584  C33.247,33.027,32.675,32.271,31.853,32.157z"></path><path d="M24.173,39.87c0.363-0.744,0.055-1.643-0.689-2.007c-0.74-0.363-1.641-0.057-2.006,0.688  c-0.758,1.548-1.477,3.196-2.137,4.899c-2.045,5.274-3.02,9.335-2.896,12.067c0.035,0.805,0.699,1.433,1.496,1.433  c0.023,0,0.045,0,0.068-0.002c0.828-0.036,1.469-0.737,1.432-1.565c-0.07-1.591,0.34-4.765,2.697-10.849  C22.767,42.912,23.452,41.343,24.173,39.87z"></path><path d="M24.968,35.209c0.25,0.157,0.527,0.232,0.801,0.232c0.498,0,0.984-0.247,1.27-0.698c0.463-0.729,0.904-1.395,1.324-2.004  c0.469-0.683,0.297-1.617-0.387-2.086c-0.682-0.47-1.617-0.295-2.086,0.387c-0.439,0.639-0.904,1.335-1.387,2.1  C24.06,33.84,24.269,34.766,24.968,35.209z"></path><path d="M65.716,78.036c-3.031,0.719-7.275,1.543-13.244,1.543c-6.529-0.003-9.637-0.769-11.096-1.41  c-0.764-0.334-1.645,0.011-1.977,0.769c-0.334,0.759,0.01,1.644,0.768,1.978c2.504,1.102,6.643,1.661,12.303,1.664  c6.281,0,10.748-0.867,13.939-1.623c0.805-0.191,1.303-1,1.113-1.806C67.331,78.344,66.524,77.845,65.716,78.036z"></path><path d="M66.409,73.185c-3.189-0.756-7.658-1.624-13.939-1.624c-5.658,0-9.797,0.558-12.297,1.658  c-0.76,0.334-1.104,1.219-0.77,1.977c0.334,0.759,1.217,1.103,1.977,0.77c1.457-0.641,4.563-1.404,11.09-1.404  c5.971,0,10.217,0.825,13.248,1.544c0.117,0.027,0.232,0.04,0.348,0.04c0.68,0,1.295-0.464,1.459-1.154  C67.714,74.185,67.218,73.376,66.409,73.185z"></path><path d="M72.021,25.408c0.613-0.556,0.662-1.504,0.107-2.119c-0.557-0.614-1.504-0.661-2.119-0.107  c-0.822,0.743-1.699,1.579-2.605,2.485c-4.441,4.442-6.986,8.214-8.709,11.003c-0.436,0.705-0.217,1.63,0.488,2.064  c0.246,0.151,0.518,0.224,0.787,0.224c0.504,0,0.994-0.253,1.277-0.712c1.637-2.651,4.055-6.235,8.277-10.457  C70.396,26.919,71.235,26.117,72.021,25.408z"></path><path d="M75.603,22.203c0.275,0,0.555-0.075,0.803-0.232c0.723-0.459,1.383-0.805,1.961-1.03c0.771-0.301,1.152-1.17,0.852-1.942  c-0.299-0.771-1.168-1.153-1.941-0.853c-0.758,0.295-1.592,0.729-2.477,1.29c-0.701,0.444-0.908,1.37-0.465,2.07  C74.62,21.957,75.106,22.203,75.603,22.203z"></path><path d="M81.864,21.648c-0.77-0.301-1.641,0.08-1.941,0.854c-0.578,1.481-2.234,4.218-6.85,8.835  c-4.227,4.225-7.811,6.642-10.459,8.276c-0.705,0.435-0.926,1.358-0.49,2.063c0.285,0.46,0.775,0.713,1.277,0.713  c0.27,0,0.541-0.072,0.787-0.224c2.789-1.719,6.559-4.263,11.006-8.708c4.002-4.003,6.533-7.323,7.523-9.868  C83.019,22.817,82.636,21.948,81.864,21.648z"></path></svg>