<svg height='100px' width='100px'  fill="#000000" xmlns="http://www.w3.org/2000/svg" xmlns:xlink="http://www.w3.org/1999/xlink" version="1.1" x="0px" y="0px" viewBox="0 0 491.5 491.5" style="enable-background:new 0 0 491.5 491.5;" xml:space="preserve"><g><g><path d="M104,299.5c1.8-15.8-5.3-32.3-11.6-47c-6.6-15.4-12.5-29.2-8.9-41.8c4.5-16,12.2-28.1,21.8-35.8    c8.2-6.6,17.7-9.9,27.8-9.8c9.8,0.1,20,3.7,29.8,10.8c11.7,8.5,22.9,22.4,32.3,42.1c6.2-16.5,8.2-38.5,10.2-60.1    c4.7-49.6,9.2-97.5,59.5-92.1c13.6,1.5,23.9,11.4,31.1,24.4c5.8,10.5,9.6,23.3,11.4,34.8c30.1-22.9,55.9-34.5,76.3-32.3    c24.7,2.7,40.7,23.7,46.3,67.2l-1,4.8c-11.5,19.9-27.5,35.2-48.9,44.9c-16.9,7.7-37.2,11.8-61.3,11.8c5.4,7.5,9.2,15.3,11.3,23.3    c3.5,13.4,2.3,27.4-3.6,42l-1.8,2.7c-4.5,4.2-8.4,8-12.2,11.7c-27.1,26.3-43.5,42.2-72.2,26.9c-0.6,52.5-38.4,67-79.5,82.9    l-3.5,1.3c-9,12-22.4,15.4-38.9,13c-15.3-2.3-33.4-9.9-52.8-20.1l-6.3-3.3l2.8-6.5L104,299.5L104,299.5z M106.6,246.5    c7.2,16.8,15.3,35.7,12.5,56l-0.6,2L79,394.9c15.5,7.8,29.8,13.4,41.6,15.2c11.3,1.7,20.2-0.4,25.3-8.3l3.7-3    c2.3-0.9,1.9-0.7,5.7-2.2c39.1-15,74.7-28.7,68.9-82.4l-1.9-17.6l14.1,10.7c26.8,20.2,40.5,6.9,65.3-17.2    c3.5-3.4,7.3-7.1,11.1-10.7c4.1-10.8,4.9-21.1,2.4-30.8c-2.7-10.3-9.2-20.3-19.4-30l5.8-13.2c29.6,2.3,53.3-1.3,72.1-9.7    c17.6-8,30.9-20.3,40.7-36.4c-4.7-33.4-15.9-49.5-32.4-51.3c-18.6-2-44.6,11.8-76.4,37.9L293,156.4l0.2-16.5    c0.2-12.1-3.4-29.2-10.6-42.3c-4.9-8.9-11.4-15.6-19.3-16.5c-34.9-3.8-38.7,36.5-42.6,78.2c-2.8,30.3-5.8,61.3-20,81.1l-8.4,11.7    l-5-13.5c-9.3-25-21.2-41.5-33.4-50.4c-7.1-5.2-14.3-7.8-20.9-7.9c-6.4-0.1-12.6,2.1-18,6.4c-7.2,5.8-13,15.2-16.7,28    C96.2,222.3,101.1,233.8,106.6,246.5L106.6,246.5z"></path><path d="M103.3,315c24-4.4,46.5-4.1,67.4,1.4c21,5.5,40.4,16.1,57.9,32.3l-5.2,5.6    c-16.6-15.3-34.9-25.4-54.7-30.5c-19.8-5.2-41.3-5.5-64.1-1.2L103.3,315z"></path><path d="M205.5,210.1c23.2,7.7,42.7,18.8,58.5,33.7c15.8,14.9,27.6,33.6,35.2,56.2l-7.3,2.4    c-7.2-21.4-18.3-39-33.2-53.1c-14.9-14.1-33.5-24.7-55.6-32L205.5,210.1L205.5,210.1z"></path><path d="M210.2,180.1c23.9-5,46.4-5.2,67.5-0.2c21.1,5,40.7,15.2,58.7,31l-5.1,5.8c-17-14.9-35.4-24.6-55.3-29.3    c-20-4.7-41.4-4.5-64.2,0.2L210.2,180.1L210.2,180.1z"></path><path d="M327.9,113.9c34.4,19.4,40.3,46.6,48.5,83.7c1,4.6,1.1,5,1.6,7.3l-7.5,1.6c-1.6-7.2-1.6-7.1-1.6-7.3    c-7.8-35.3-13.4-61-44.8-78.7L327.9,113.9L327.9,113.9z"></path></g></g></svg>