<svg height='100px' width='100px'  fill="#000000" xmlns="http://www.w3.org/2000/svg" xmlns:xlink="http://www.w3.org/1999/xlink" version="1.1" x="0px" y="0px" viewBox="0 0 100 100" style="enable-background:new 0 0 100 100;" xml:space="preserve"><path d="M22.2,56.7c0.2,0,0.4,0.2,0.4,0.5c0,0.2-0.2,0.4-0.4,0.4c-0.1,0.6-0.1,1.3-0.2,1.9c0,0.4,0,0.7,0.1,1.1  c0,0.1,0.1,0.3,0.2,0.4c0.1,0.1,0.2,0.1,0.2,0.1c0.2,0.1,0.4,0.3,0.4,0.5c0,0.3-0.3,0.6-0.4,0.9c-0.1,0.3,0,0.5,0.1,0.8  c0.2,0.8,0.4,1.6,0.7,2.4c0.2,0.4,0.3,0.9,0.4,1.4c0.1,0.7,0.3,1.3,0.3,2c0,0.6,0.3,1.2,0.7,1.7s0.7,1,0.9,1.6  c0,0.2,0.1,0.5,0.1,0.7c0.1,0.4,0.5,0.7,0.8,0.9c0.1,0.1,0.2,0.2,0.2,0.3c0.1,0.1,0.1,0.2,0.1,0.3c0.1,0.4,0.2,1,0.5,1.3  c0.7,0.8,0.6,2.1,0.9,3.1c0.1,0.3,0.2,0.5,0.3,0.8c0,0.1,0,0.3,0.1,0.4c0.1,0.1,0.1,0.2,0.2,0.3c0.2,0.3,0.4,0.6,0.4,1  c0.3,0.3,0.6,0.5,0.9,0.7c0.1,0.1,0.2,0.1,0.3,0.2c0.1,0.2,0.1,0.4,0.2,0.5c0.1,0.2,0.2,0.3,0.4,0.5c0.1,0.2,0.2,0.3,0.2,0.5  c0.2,0.6,0.4,1.2,0.6,1.8c0.1,0.2,0.2,0.5,0.3,0.7c0.2,0.3,0.5,0.5,0.6,0.8c0.1,0.3-0.1,0.6-0.2,0.8c0.1,0.5,0.2,0.9,0.4,1.4  c0.1,0.2,0.1,0.4,0.3,0.6c0.1,0.1,0.2,0.1,0.3,0.2c0.3,0.3,0.3,0.8,0.6,1.1c0.2,0.2,0.6,0.3,0.8,0.5c0.1,0.2,0.2,0.4,0.3,0.5  c0.1,0.1,0.3,0.1,0.5,0.1c0.5-0.1,0.9-0.3,1.4-0.4c0.4-0.1,0.7-0.6,0.7-1c0-0.1,0-0.2,0-0.4c0.1-0.2,0.2-0.2,0.3-0.4  c0-0.1,0-0.2,0.1-0.3c0-0.1,0.2-0.2,0.3-0.2c0.7-0.3,1.5-0.5,2.2-0.5c-0.2-0.1-0.4-0.1-0.6-0.2c-0.2-0.1-0.3-0.3-0.3-0.5  c0-0.2,0.1-0.3,0.1-0.4c0.1-0.3,0.3-0.6,0.5-0.7c0.1-0.1,0.2-0.1,0.2-0.2c0-0.1,0-0.2,0.1-0.3c0.1-0.3,0.3-0.5,0.6-0.6  c0.4-0.1,0.7-0.2,1.1-0.1c-0.1-1.1-0.4-2.4-0.3-3.6c0.1-0.6,0.2-1.2,0.5-1.8c0.2-0.3,0.5-0.5,0.6-0.8c0.4-0.6,0.4-1.3,0.3-2  c-0.1-0.7-0.3-1.3-0.5-2c0-0.2-0.1-0.4-0.1-0.6c0-0.3,0.2-0.6,0.2-0.9c0-0.5-0.3-0.9-0.5-1.3c-0.2-0.4-0.1-0.9,0.1-1.3  c0-0.1,0.1-0.1,0.1-0.2c0-0.1,0-0.2,0.1-0.3c0.1-0.5,0.5-0.9,1-1c0.2,0,0.4,0,0.5-0.1c0.1,0,0.2-0.1,0.3-0.1c0,0,0.1,0,0.1,0.1  c0.2,0.2,0.6,0,0.7-0.3c0.1-0.3,0.1-0.6,0.3-0.8c0.2-0.3,0.7-0.4,1-0.4c0.5-0.1,0.9-0.2,1.4-0.3c0.2-0.1,0.5-0.2,0.5-0.4  c0.1-0.4-0.3-0.7-0.3-1.1c0-0.2,0.2-0.4,0.4-0.5c0.8-0.5,1.7-0.8,2.3-1.5c0.1-0.2,0.3-0.4,0.4-0.6c0.3-0.4,0.8-0.6,1.2-0.8  c0.9-0.6,1.6-1.5,2.3-2.3c0.3-0.3,0.5-0.6,0.7-1c0.4-0.1,0.7-0.5,0.8-0.9c-0.1,0-0.2,0-0.3,0c0.1-0.2,0.2-0.4,0.3-0.5  c0.1-0.2,0.3-0.4,0.5-0.5c0.2-0.1,0.5,0.1,0.5,0.3c0.7,0,1.4,0,1.8-0.6c0-0.1,0.1-0.1,0.1-0.1c0,0,0.1,0,0.1,0  c0.2,0,0.3-0.2,0.5-0.3c0.2-0.2,0.3-0.4,0.4-0.6c0-0.1,0-0.3,0.2-0.4c0.1,0,0.1,0,0.2,0c0.1,0,0.2-0.2,0.2-0.3  c0-0.1-0.2-0.2-0.3-0.2c0-0.1,0.1-0.2,0.2-0.3c0.1-0.1,0.2-0.1,0.3-0.2c0.1-0.1,0.1-0.4,0-0.4c-0.3-0.2-0.4-0.6-0.2-0.9  s0.4-0.6,0.8-0.7c0.3-0.1,0.7-0.2,1-0.3c0.3-0.1,0.6-0.2,0.8-0.3c0.1,0,0.2-0.1,0.3-0.2c0.3-0.2,0.3-0.7,0.1-0.9c0.2,0,0.4,0,0.5,0  c0-0.1-0.1-0.2,0-0.3c0.1-0.1,0.2-0.1,0.2,0c0,0.2,0,0.5,0,0.7c0.3,0.1,0.6-0.1,0.6-0.4c0.2,0,0.3,0.1,0.5,0.1c0-0.1,0-0.3,0.1-0.4  c0.1,0,0.2,0.1,0.2,0.2c0.2-0.3,0.3-0.5,0.5-0.8c0.1-0.1,0.1-0.2,0-0.3c-0.1-0.2-0.5,0-0.6-0.2c0.2-0.1,0.4-0.1,0.6-0.1  c0,0,0.1,0.1,0.2,0.1c0-0.1,0.2-0.4,0.1-0.5c-0.2-0.3-0.2-0.6-0.1-0.9c0-0.1,0.1-0.3,0-0.4c0,0-0.1,0-0.1-0.1  c-0.2-0.1-0.3-0.3-0.3-0.5c0-0.2,0-0.4,0.1-0.6c-0.2-0.1-0.4-0.3-0.6-0.4c0-0.2,0.1-0.3,0.2-0.4c0.3-0.4,0.4-1,0.3-1.6  c-0.3,0-0.5-0.4-0.8-0.4c-0.1,0-0.2,0-0.3,0c-0.3,0-0.5-0.3-0.6-0.5c-0.1-0.3,0-0.6,0.1-0.8c0.1,0.1,0.2,0,0.2-0.1  c0.1-0.1,0.1-0.2,0.2-0.2c0.1,0,0.1,0,0.2,0c0.1,0,0.1-0.2,0.2-0.3c0.1-0.2,0.3-0.3,0.5-0.4c0.2,0,0.4,0,0.6,0c0.1,0,0.2,0,0.3-0.1  s0.1-0.2,0-0.3c-0.1,0.1-0.3,0-0.3-0.1s-0.1-0.2-0.2-0.3c-0.1-0.1-0.3-0.2-0.4-0.2c-0.1,0.1-0.4,0.1-0.5,0c-0.1-0.1-0.2-0.3-0.3-0.4  c0-0.1-0.1-0.2-0.2-0.2c-0.1,0-0.2,0-0.2,0c-0.2,0-0.3-0.3-0.3-0.5c0-0.2,0.2-0.4,0.2-0.5c0-0.1,0-0.3,0.1-0.4  c0.1-0.1,0.4-0.1,0.5-0.3c0.1-0.1,0.1-0.3,0.1-0.4c0-0.1,0.2-0.2,0.3-0.1c0.1,0,0.2,0.1,0.2,0.2s0,0.2,0.1,0.3  c0.1,0.2,0.4,0.2,0.6,0.2c0.2-0.1,0.5-0.1,0.7,0c0.1,0.1,0.2,0.3,0.3,0.5c0.1,0.1,0.2,0.1,0.3,0.2c0.2,0.1,0.3,0.1,0.5,0.2  c0.1,0,0.2,0.1,0.3,0c0.1-0.1,0.1-0.2,0.1-0.3c0-0.1,0.1-0.3,0.2-0.3c0.1,0.2,0.3,0.3,0.4,0.5c0.3,0.5-0.1,1.1,0,1.7  c0.1,0.2,0.2,0.4,0.4,0.5c0.2,0.2,0.5,0.2,0.8,0.2c0.2,0,0.5,0.1,0.7,0.1c0.2,0,0.4,0.1,0.6,0c0.2,0,0.3-0.1,0.5-0.1  c0.3,0,0.7,0.1,1,0.1c0.7,0.1,1.3-0.2,2-0.2c0.5,0,0.9,0.2,1.2,0.5c0.1,0.2,0,0.3-0.1,0.5c0,0.1-0.1,0.2-0.1,0.2  c-0.1,0.4-0.2,0.7-0.4,1.1c-0.3,0.2-0.4,0.5-0.6,0.7c0,0-0.1,0.1-0.1,0.1c-0.2,0.1-0.4,0.2-0.6,0.2c-0.6,0.1-1.2,0.5-1.3,1.1  c-0.1,0.5,0.1,1,0.3,1.4c0.1,0.2,0.3,0.4,0.5,0.6c0.1,0.1,0.2,0.2,0.4,0.3c0.1,0.1,0.3,0,0.4-0.1c0.2-0.3-0.1-0.8,0.1-1.1  c0.1-0.1,0.2-0.1,0.3-0.2c0.2-0.2,0.1-0.5,0.2-0.7c0.1-0.3,0.5-0.3,0.8-0.1c0.2,0.2,0.3,0.5,0.4,0.8c0.1,0.4,0.1,0.7,0.1,1.1  c0,0.1,0,0.3,0,0.4c0,0.1,0.1,0.2,0.2,0.3c0.3,0.4,0.2,1,0.4,1.5c0.1,0.3,0.2,0.5,0.5,0.8c0.2,0.2,0.6,0.3,0.7,0.1  c0.1-0.1,0.1-0.3,0.2-0.4c0.1-0.1,0.4-0.2,0.3-0.4c-0.2-0.7-0.2-1.4-0.1-2.1c0.1,0.1,0.3,0.1,0.5,0c0-0.1,0-0.2,0.1-0.3  c0,0,0.1-0.1,0.1-0.1c0,0,0-0.1,0-0.1c0-0.2,0-0.4,0.1-0.7c0-0.5,0.1-1.1-0.2-1.6c-0.1-0.1-0.1-0.3,0-0.3c0.3-0.1,0.5,0.3,0.8,0.3  c0.3,0,0.6-0.2,0.9,0c0.1,0,0.1,0.1,0.2,0.2c0.2,0.1,0.4-0.2,0.4-0.4c0.1-0.3,0.2-0.6,0.3-0.9c0-0.1,0.1-0.3,0.1-0.4  c0.2-0.4,0.6-0.6,0.8-1c0.1-0.2,0.2-0.5,0.3-0.7c0.1-0.2,0.1-0.5-0.1-0.5c-0.1-0.1-0.3,0-0.4-0.1c0-0.5,0.3-0.9,0.7-1  c0.2-0.1,0.2-0.5,0.4-0.6c0.1,0,0.1,0,0.2-0.1c0.1-0.1,0.1-0.3,0.1-0.5c0-0.2,0.2-0.2,0.3-0.4c0.1-0.2-0.2-0.5-0.2-0.7  c-0.1-0.2,0-0.4,0-0.6c0-0.1,0.1-0.3,0.2-0.4c0.1-0.1,0.3-0.1,0.4-0.2c0.3-0.1,0.5-0.5,0.7-0.7c0.3-0.3,0.9-0.5,1.1-0.9  c0-0.1,0.1-0.2,0.1-0.2c0,0,0.1,0,0.2-0.1c0.2,0,0.4-0.1,0.6-0.1c0.3-0.1,0.5-0.2,0.7-0.4c0.3,0.1,0.7,0.2,0.9,0.5  c0.1,0.1,0.1,0.2,0.2,0.3s0.2,0.1,0.3,0c0.1-0.3-0.1-0.5-0.2-0.8c-0.1-0.2-0.2-0.6-0.1-0.8c0.2-0.2,0.6-0.2,0.7-0.5  c0.1-0.2,0.1-0.4,0.1-0.6c0.1-0.3,0.3-0.6,0.1-0.9c-0.1-0.1-0.2-0.1-0.2-0.2c-0.2-0.1-0.5-0.2-0.7-0.3c-0.6-0.2-1.2-0.3-1.8-0.2  c0.1-0.5,0.4-0.9,0.8-1.1c0-0.1,0-0.2-0.1-0.3c-0.1-0.1-0.2-0.3-0.3-0.5c-0.2,0-0.3,0.1-0.5,0.1c-0.2,0-0.4-0.1-0.4-0.2  c0-0.3,0.6-0.4,0.6-0.7c-0.3,0-0.7-0.2-0.8-0.5c-0.2,0.1-0.3,0.2-0.5,0.3c-0.4,0.2-0.8,0.4-1,0.8c0,0.1-0.1,0.1-0.1,0.2  c-0.1,0.1-0.2,0.1-0.4,0c-0.1-0.1-0.2-0.2-0.3-0.2c-0.3-0.1-0.6-0.1-1-0.1c-0.1,0-0.3,0-0.4-0.1c-0.2-0.2-0.2-0.5-0.4-0.4  c-0.1,0.3-0.5,0.4-0.8,0.6c-0.3,0.2-0.4,0.5-0.6,0.8c-0.3,0.4-0.8,0.7-1.4,0.7c-0.3,0-0.6,0-0.8,0.1c-0.3,0.2-0.2,0.8-0.5,1.1  c-0.1,0.1-0.3,0.2-0.5,0.3c-0.2,0.1-0.4,0.2-0.6,0.3c-0.1,0.1-0.2,0.1-0.2,0.2c0,0.1,0,0.2,0.1,0.2c0.1,0.1-0.1,0.2-0.2,0.3  c-0.3,0.1-0.5,0.2-0.8,0.3c-0.3-0.3-0.9,0.2-1.3,0.1c-0.1,0-0.2-0.1-0.3-0.1c-0.3,0-0.5,0.2-0.5,0.5s0.3,0.5,0.5,0.5  c0.2,0,0.4,0,0.5,0.1c0.3,0.2,0.1,0.7,0.2,1.1c0.1,0.2,0.3,0.4,0.2,0.6c-0.1,0.2-0.3,0.2-0.5,0.2c-1,0.1-1.9,0.1-2.9,0.2  c-0.2,0-0.4,0-0.5-0.1c-0.1-0.1-0.2-0.3-0.4-0.3c-0.2-0.1-0.5-0.1-0.7,0.1s-0.4,0.4-0.6,0.5c-0.5,0.2-1,0.1-1.5-0.1  c-0.3-0.1-0.5-0.2-0.8-0.3c-0.3-0.1-0.5-0.2-0.8-0.3c-0.1,0-0.2-0.1-0.3-0.2c-0.2-0.2-0.2-0.5-0.1-0.7c0.1-0.1,0.2-0.2,0.2-0.3  c0.1-0.2-0.2-0.4-0.3-0.7c-0.1-0.4,0.3-0.8,0.2-1.2c-0.1-0.3-0.4-0.5-0.7-0.6c-0.3,0-0.6,0.1-1,0.2c-0.2,0.1-0.3,0.1-0.4,0.3  c0,0.1-0.1,0.2-0.1,0.3c-0.1,0.4-0.1,0.8-0.2,1.2c0,0.3-0.1,0.6,0,0.9c0.1,0.5,0.5,1.1,0.3,1.6c-0.1,0.3-0.4,0.5-0.7,0.6  c-0.3,0.1-0.6,0.1-1,0.1c-0.3,0-0.5,0-0.8-0.1c-0.1,0-0.2-0.1-0.3-0.1c-0.2-0.1-0.5,0-0.7,0c-0.4,0-0.9-0.1-1.3-0.1  c-0.4-0.1-0.8-0.1-1.3-0.2c-0.1,0-0.3,0-0.4-0.1c-0.2-0.1-0.3-0.3-0.5-0.4c-0.2-0.1-0.4-0.2-0.6-0.1c-0.1,0.1-0.2,0.2-0.3,0.2  c-0.2,0-0.3-0.1-0.4-0.2C56,37.4,55.6,37,55,36.9c0-0.2,0-0.4,0-0.6c-0.3-0.3-0.8-0.2-1.1-0.4c-0.1-0.1-0.2-0.1-0.3-0.2  c-0.4-0.1-0.7,0.3-1.1,0.3c-0.2,0-0.3-0.1-0.4-0.2c-0.1-0.1-0.3-0.1-0.4-0.1c-0.1,0.1-0.2,0.2-0.3,0.3c-0.2,0.1-0.5-0.1-0.7-0.2  c-0.4-0.2-0.9-0.1-1.1-0.5c0-0.1-0.1-0.1-0.1-0.2C49.4,35,49.1,35,48.9,35c-0.4,0-0.7-0.3-1.1-0.4c-0.4-0.1-0.8-0.1-1.2-0.3  c-0.3-0.1-0.6-0.4-0.8-0.7c-0.1-0.2-0.3-0.3-0.4-0.5c-0.1-0.1-0.1-0.1-0.2-0.2c-0.1,0-0.1-0.1-0.2-0.1c-0.5-0.2-0.9-0.5-1.4-0.7  c0,0-0.1-0.1-0.2-0.1c-0.1,0-0.2,0-0.2,0c-0.4,0.1-0.8-0.2-0.9-0.5c-0.1-0.4,0-0.8,0.3-1c0.1-0.1,0.2-0.1,0.2-0.2  c0-0.1,0-0.2-0.1-0.3c0-0.2,0.1-0.4,0.2-0.6c0-0.2-0.1-0.5,0.1-0.7c0-0.1,0.1-0.1,0.1-0.1c0.3-0.2,0.5-0.4,0.8-0.6  c0-0.4,0.3-0.7,0.7-0.8c0.1,0,0.2-0.1,0.2-0.1c0,0,0-0.1-0.1-0.1c-0.2-0.1-0.5-0.1-0.7-0.3c-0.1-0.1-0.2-0.2-0.2-0.3  c-0.2-0.2-0.7-0.1-0.9-0.4c-0.1-0.1-0.1-0.2-0.2-0.3c-0.1-0.1-0.2-0.1-0.2-0.2c-0.4-0.2-0.7-0.5-1.1-0.7c-0.1-0.1-0.2-0.1-0.3-0.1  c-0.1,0-0.3,0-0.5,0c-0.3,0-0.5-0.2-0.7-0.4c-0.1-0.2-0.3-0.3-0.3-0.6s0.1-0.5,0.4-0.5c0.1,0,0.3,0.1,0.3,0.3s-0.1,0.3-0.3,0.3  c0.2,0,0.4-0.1,0.5-0.3c0-0.3-0.3-0.6-0.5-0.8c-0.2-0.1-0.3-0.2-0.5-0.2c-0.2,0-0.4,0.2-0.4,0.4c0.1,0.1,0.3,0,0.4-0.1  c0.1-0.1,0.3-0.1,0.3,0.1c-0.1,0.1-0.2,0.2-0.4,0.3c-0.2,0.1-0.3,0.2-0.5,0.2c0,0.1-0.1,0.2-0.1,0.4c-0.1,0-0.2-0.1-0.2-0.2  c-0.1-0.3,0-0.7-0.2-1c0-0.1-0.1-0.2-0.1-0.3c0-0.1,0-0.2,0.1-0.3c0.1-0.4-0.3-0.8-0.7-1.1c0.1-0.1,0.3-0.3,0.4-0.4  c-0.2-0.2-0.4-0.2-0.6-0.2c-0.1-0.2,0-0.5,0.2-0.7c0.2-0.2,0.5-0.2,0.7-0.2c0,0.3,0.2,0.7,0.5,0.8c0,0,0.1,0,0.1,0  c0.1,0,0.1-0.1,0.1-0.1c0.1-0.2,0.4-0.4,0.6-0.4c0.3-0.1,0.5-0.1,0.7-0.3c0.2-0.2,0.3-0.5,0-0.7c-0.1,0-0.2-0.1-0.2-0.2  c0-0.1,0-0.2-0.1-0.3c0,0-0.1-0.1-0.1-0.1c-0.2-0.2,0.3-0.6,0.2-0.8c-0.3-0.1-0.6-0.1-0.8,0.1c-0.1,0.1-0.2,0.2-0.3,0.3  c-0.1,0.1-0.3,0.1-0.4,0c-0.1-0.2,0-0.4,0.2-0.4c0.1,0,0.2-0.1,0.2-0.2c0-0.1-0.2-0.1-0.2-0.1c-0.1,0-0.2-0.2-0.2-0.3  c0-0.1,0.1-0.2,0.2-0.4c0.2-0.3,0.2-0.8-0.2-1c0,0-0.1,0-0.1-0.1c0,0,0-0.1,0-0.1c0.1-0.2,0.3-0.3,0.5-0.3c0.2,0,0.4,0,0.6-0.1  c0.2-0.1,0.3-0.2,0.5-0.4c0.1-0.1,0.2-0.2,0.2-0.4s-0.1-0.3-0.2-0.3c0.2-0.1,0.3-0.2,0.3-0.4c0-0.1,0-0.1,0.1-0.2  c0-0.1,0.1-0.1,0.2-0.1c0.3-0.2,0.5-0.6,0.7-0.8c0.1-0.1,0.2-0.2,0.3-0.3c0.1-0.1,0.1-0.2,0.1-0.4c0.1-0.5,0.2-0.9,0.3-1.4  c0.1-0.3,0.1-0.6-0.1-0.7C41.9,9,41.7,9,41.6,8.9c-0.2-0.1-0.3-0.3-0.5-0.4c-0.1,0-0.2,0-0.3,0c-0.3,0-0.7,0-1-0.2  c-0.1-0.2-0.3-0.2-0.5-0.1c-0.5,0.1-1.1,0.2-1.6,0.4c-0.2,0-0.4,0.1-0.6,0.2c-0.2,0.1-0.3,0.2-0.5,0.4c-0.5,0.4-1,0.6-1.6,0.8  c-0.1,0-0.3,0.1-0.4,0c-0.3-0.1-0.4-0.5-0.7-0.8c-0.2-0.2-0.6-0.3-1-0.3c-0.3-0.1-0.7-0.3-0.7-0.7c0-0.1,0.1-0.3,0-0.4  c0-0.1-0.2-0.2-0.3-0.2c-0.5-0.2-1-0.5-1.4-0.9c-0.1-0.1-0.2-0.2-0.3-0.2c-0.1,0-0.2,0-0.3,0c-0.3,0-0.5-0.3-0.7-0.5  c-0.2-0.3-0.3-0.5-0.5-0.7c-0.4-0.3-0.9-0.4-1.4-0.6c-0.4-0.2-0.9-0.4-1.2-0.1c-0.1,0.1-0.1,0.2-0.2,0.3c-0.1,0.2-0.3,0.3-0.5,0.4  c-0.5,0.3-1.1,0.7-1.8,0.7c-0.4,0-0.7-0.1-1.1,0c-0.4,0.2-0.6,0.6-1,0.9c-0.3,0.3-0.7,0.5-0.9,0.8S20.6,8.4,21,8.6  c0.4,0.2,1.1-0.2,1.3,0.2c0.1,0.1,0.1,0.2,0.1,0.3c0.2,0.5,0.8,0.6,1.3,0.6c0.1,0,0.2,0,0.3,0.1c0.1,0.1,0,0.3-0.1,0.5  c-0.1,0.3,0.4,0.6,0.7,0.6c0.1,0.1,0.3,0,0.4,0.1c0.1,0,0.1,0.1,0,0.2c0,0.4-0.3,0.8-0.6,1c-0.2,0.1-0.5,0.2-0.6,0.4  c0,0.1-0.1,0.1-0.1,0.2c0,0.1-0.1,0.1-0.2,0.1c-0.4,0.2-0.4,0.7-0.4,1.1c0,0.2,0,0.4,0.1,0.6c0.3,0.4,0.3,0.8,0.3,1.3  c0,0.4,0,0.9,0.1,1.3s0.3,0.9,0.8,1c0.2,0.1,0.3,0.1,0.4,0.2c0.1,0,0.1,0.1,0.2,0.2c0.1,0.1,0.2,0.1,0.3,0.1  c0.4,0.1,0.7,0.2,1.1,0.2c0.1,0,0.1,0,0.2,0.1c0.2,0.2,0.1,0.6,0.2,0.8c0.1,0.2,0.3,0.3,0.5,0.3c0.3,0,0.6,0,0.8,0.1  c0.3,0.1,0.5,0.2,0.6,0.5c0,0.1,0,0.3-0.1,0.4c-0.1,0.1-0.3,0.1-0.4,0.2c-0.5,0.1-1,0.2-1.3,0.5c-0.5,0.4-0.6,1.2-0.6,1.9  c0,0.2,0,0.4,0.1,0.5c0.1,0.1,0.2,0.1,0.3,0.2c0.1,0.1,0.2,0.2,0.2,0.3c0,0.1-0.1,0.1-0.1,0.1c-0.5,0.5-1.1,1.1-1.6,1.6  c-0.1,0.1-0.3,0.3-0.3,0.5c0,0.2,0,0.5,0.2,0.6c-0.2,0.4-0.7,0.6-1.1,0.6c-0.2,0-0.3,0-0.4,0.1c-0.1,0.1-0.1,0.2-0.1,0.3  c-0.1,0.6-0.4,1.1-0.7,1.7c-0.1,0.3-0.3,0.5-0.4,0.8c-0.1,0.2-0.2,0.4-0.3,0.5c-0.4,0.4-1.1,0.4-1.4,0.9c-0.2,0.3-0.1,0.8-0.3,1.1  c-0.2,0.3-0.6,0.4-0.6,0.7c0,0.1,0,0.2,0,0.3c-0.1,0.3-0.4,0.3-0.6,0.5c-0.2,0.2-0.5,0.4-0.8,0.3c-0.1,0-0.1-0.1-0.2-0.1  c-0.1,0-0.2,0-0.3,0.1c-0.3,0.1-0.5,0.2-0.8,0.3c-0.3,0.1-0.7,0.2-0.9,0c-0.1-0.1-0.1-0.4-0.2-0.5c-0.1-0.2-0.5-0.3-0.7-0.2  s-0.4,0.4-0.6,0.6c-0.1,0.2-0.3,0.5-0.4,0.7c0,0.1-0.1,0.2-0.2,0.3c-0.1,0.1-0.1,0.1-0.2,0.2c-0.3,0.2-0.6,0.5-0.8,0.9  c-0.2,0.3-0.3,0.6-0.2,0.9c0.1,0.2,0.1,0.5,0.3,0.6c0.3,0.2,0.7,0.1,1.1,0.1c0.3,0,0.6,0.2,0.7,0.5c0.1,0.3,0,0.6-0.2,0.9  c-0.1,0.1-0.2,0.2-0.3,0.3c0,0.1,0,0.3,0.1,0.4c0.1,0.2,0.2,0.4,0.3,0.6c0,0,0,0.1,0.1,0.1c0.3,0.2,0.7,0.3,1,0.2c0.1,0,0.1,0,0.2,0  C16,42,16,42.2,16,42.3c0,0.2,0.1,0.4,0.2,0.7c0.1,0.2,0.3,0.5,0.4,0.7c0,0.1,0.1,0.1,0.1,0.2c0.1,0.2,0.2,0.4,0.3,0.6  c0,0.1,0.1,0.2,0.1,0.2c0,0.1,0,0.2,0,0.2c0,0.3,0.1,0.6,0,0.9c-0.1,0.2-0.3,0.4-0.5,0.4c-0.2,0.1-0.4,0.1-0.5,0  c-0.2-0.1-0.3-0.3-0.2-0.5c-0.5,0.2-0.9,0.3-1.3,0.6c-0.1,0.1-0.3,0.2-0.4,0.2c-0.5,0.1-0.9-0.3-1.3-0.3c-0.6-0.1-1.3,0.4-1.8,0.1  c0,0.3,0,0.6-0.1,0.9c-0.3,0-0.5,0-0.8-0.1c-0.1,0-0.2,0-0.3,0c0.2,0.2,0.5,0.3,0.7,0.2c0,0.1,0,0.3,0,0.4c-0.3,0-0.5,0.3-0.5,0.6  c0,0.3,0.1,0.5,0.3,0.8c0.1,0.2,0.3,0.5,0.5,0.6c0.3,0.3,0.8,0.5,1.2,0.7c0.4,0.2,0.8,0.3,1.2,0.2c0.2,0,0.4-0.1,0.6-0.2  c0.1,0,0.2-0.1,0.3-0.2c0.1-0.1,0.2-0.2,0.3-0.3s0.3-0.1,0.4-0.1c0.1,0.1,0.2,0.3,0.4,0.2c0.1,0,0.2-0.2,0.3-0.3  c0.1-0.1,0.3-0.2,0.3,0c0,0.1,0,0.1-0.1,0.1c-0.2,0.3-0.4,0.5-0.5,0.8c0,0.3-0.2,0.6-0.5,0.7c-0.1,0-0.3,0-0.4,0  c-0.1,0.1-0.1,0.2-0.2,0.2c-0.1,0.1-0.2,0.1-0.3,0.1c-0.2,0-0.4,0.1-0.5,0.1c-0.5,0.1-1.2,0.3-1.6-0.1c-0.1,0.1-0.3,0.2-0.3,0.4  c0,0.1,0.2,0.2,0.3,0.3c0.4,0.3,0.6,0.8,0.9,1.1c0.3,0.3,0.7,0.5,1.1,0.5c-0.1,0.2,0.1,0.5,0.3,0.7c0.2,0.2,0.3,0.4,0.5,0.5  c0.3,0.3,0.6,0.6,0.9,0.9c0.3,0.2,0.5,0.3,0.8,0.4c0.3,0.1,0.7,0.2,0.7,0.5c0.1,0.1,0.1,0,0.2,0c0-0.1,0.1-0.1,0.1-0.2  c0.1-0.1,0.2-0.2,0.3-0.2c0.5-0.2,1-0.5,1.5-0.8c0.7-0.4,1.3-0.8,1.5-1.5c0.1-0.4,0-0.9,0-1.4c0-0.3,0-0.6,0.2-0.7  c0.1,0,0.2,0,0.3-0.1c0.2,0,0.4,0,0.6-0.1c-0.3,0.4-0.5,1-0.2,1.4c0.1,0.1,0.2,0.2,0.3,0.4c0,0.1,0,0.3,0,0.4  c-0.1,0.4,0,0.7,0.1,1.1C22,55.9,22.3,56.3,22.2,56.7z"></path><path d="M80.4,94.7c0,0.1,0.1,0.1,0.1,0.2c0.1,0.1,0.2,0.2,0.2,0.3c0.1,0.1,0.2,0.3,0.2,0.4c0.1,0,0.2,0,0.3,0c0,0,0,0,0,0  c0,0,0,0,0-0.1c0-0.3,0-0.8-0.2-1C80.9,94.3,80.3,94.4,80.4,94.7z"></path><path d="M80.6,93.9c-0.1,0-0.2,0.2-0.1,0.3c0.1,0,0.2,0,0.2,0c0-0.1,0.1-0.1,0.1-0.2S80.7,93.8,80.6,93.9z"></path><path d="M79.9,92.3C79.9,92.3,79.8,92.3,79.9,92.3c-0.1-0.1-0.2-0.1-0.2-0.1c-0.1,0-0.1,0.1-0.1,0.1c0.1,0.1,0.2,0.3,0.3,0.3  c0,0,0.1,0,0.1,0c0,0,0-0.1,0-0.1C79.9,92.4,79.8,92.3,79.9,92.3z"></path><path d="M80.1,91.7c-0.1,0-0.1,0-0.1,0.1c0,0.1,0,0.1,0.1,0.1c0.1,0,0.2,0,0.2-0.1C80.2,91.8,80.1,91.7,80.1,91.7z"></path><path d="M79.2,91.5C79.2,91.5,79.2,91.5,79.2,91.5C79.1,91.5,79.1,91.6,79.2,91.5C79.2,91.6,79.3,91.5,79.2,91.5  C79.3,91.5,79.2,91.5,79.2,91.5z"></path><path d="M78.1,88.9c-0.1-0.1-0.3,0-0.3,0.1c0,0,0,0.1,0.1,0.1c0.1,0,0.1,0,0.1-0.1C78.1,89,78.2,88.9,78.1,88.9z"></path><path d="M77.1,84.3c0,0.1,0,0.2-0.1,0.3c0,0.1,0,0.2,0,0.3c0,0,0.1,0.1,0.1,0.1c0,0,0,0.1,0,0.1c0,0,0,0,0,0c0.1,0,0.1,0.1,0.2,0.1  c0.1,0,0.1,0,0.2-0.1c0,0,0-0.1,0-0.2c0-0.2,0-0.3,0-0.5c0-0.1-0.1-0.2-0.1-0.2C77.3,84.2,77.2,84.3,77.1,84.3z"></path><path d="M77.2,81.6c0.1,0.2,0.2,0.3,0.2,0.5c0,0,0,0,0,0c0,0,0.1,0,0.1,0c0.2-0.1,0.4-0.4,0.4-0.7c0-0.2-0.1-0.3-0.1-0.5  c0-0.1,0-0.3,0-0.4c0-0.2,0.1-0.5,0.1-0.7c0.1,0.1,0.3-0.1,0.4-0.2c0.1-0.2,0-0.3,0.1-0.5c0-0.1,0-0.2-0.1-0.3c0,0,0-0.1,0-0.1  c-0.1-0.1-0.2-0.1-0.3-0.1c0,0.1-0.1,0.2-0.3,0.2c-0.1,0.1,0,0.1,0.1,0.2c0.1,0.1,0.1,0.3,0,0.4c0,0.1-0.1,0.2-0.1,0.3  c-0.1,0.3-0.2,0.6-0.2,0.9c0,0.1-0.1,0.3-0.1,0.4C77.4,81.2,77.3,81.4,77.2,81.6z"></path><path d="M78,78.3c0,0.1,0.1,0.2,0.2,0.3c0-0.1,0-0.3,0-0.4c0,0,0.1,0,0.1,0c0.1,0,0.2,0,0.2,0c0.1-0.1,0.1-0.1,0.1-0.2  c0-0.1-0.1-0.2-0.1-0.4c-0.1,0-0.2-0.1-0.2-0.2c0.1,0,0.1,0,0.2-0.1c0.1-0.1,0-0.3,0-0.4c0,0,0-0.1,0-0.1c0,0,0,0-0.1,0  c-0.2,0-0.3,0.2-0.4,0.4c-0.1,0.2,0,0.4,0,0.5C78.2,77.9,78,78.1,78,78.3z"></path><path d="M77.7,82.2c0,0.1,0,0.2-0.1,0.3c0.1,0,0.2,0,0.2-0.1c0-0.1,0-0.1,0-0.2C77.8,82.2,77.7,82.2,77.7,82.2z"></path><path d="M64.9,53.1c0-0.1,0-0.1,0-0.2c0,0-0.1,0-0.1,0c0,0.1-0.1,0.2-0.1,0.3c-0.1,0.1-0.2,0.2-0.1,0.3c0.1,0.1,0.3,0,0.3-0.1  C64.9,53.3,64.9,53.2,64.9,53.1z"></path><path d="M67,52.4C67,52.4,67,52.4,67,52.4c-0.1,0-0.1,0.1-0.1,0.1c0.1,0.1,0.2,0.1,0.2,0C67.2,52.5,67.1,52.5,67,52.4  C67.1,52.4,67,52.5,67,52.4z"></path></svg>