<svg height='100px' width='100px'  fill="#000000" xmlns="http://www.w3.org/2000/svg" xmlns:xlink="http://www.w3.org/1999/xlink" version="1.0" x="0px" y="0px" viewBox="0 0 123 123" enable-background="new 0 0 123 123" xml:space="preserve"><g><path fill-rule="evenodd" clip-rule="evenodd" stroke="#000000" stroke-width="0.216" stroke-miterlimit="22.9256" d="M84.4,101.2   c-12.3,16.6-57.6,16.6-69.9,0C3.3,86-1.2,29,0.3,9.4c32.7,0,65.5,0,98.2,0c0.6,8.4,0.2,16.8-0.3,25.2c7.1-9,16.6-14,21.9-1   c6.3,15.3,0.8,40-11.7,51.2c-5.3,4.7-11.8,7-18.7,4.7C88.5,93.5,86.8,98,84.4,101.2L84.4,101.2z M84.1,101   c2.4-3.3,4.3-7.7,5.6-11.5c7.3,2,13,0.3,18.6-4.7c12.5-11.2,17.9-35.6,11.7-50.9c-7.6-18.5-21.4,1.5-22,1.8   c0.5-8.2,1-17.6,0.4-25.8c-32.6,2.2-65.1,2.1-97.7,0C0,28.9,4.5,85.5,15,100.8C27.3,116.6,71.9,116.7,84.1,101z"></path><path fill-rule="evenodd" clip-rule="evenodd" stroke="#000000" stroke-width="0.216" stroke-miterlimit="22.9256" d="M106.8,80.3   c-3.9,3.6-8.8,5.3-14,3.5c1.6-6.7,2.7-14,3.7-20.9c1.2-8.2,2.2-16.3,2.9-24.6c4.7-6.8,12.3-12,16.7-1.4   C121.1,49.3,117.1,70.9,106.8,80.3L106.8,80.3z M115.7,37c-4.2-10.3-11.1-5.7-16.2,1.4C98.9,46.4,98.1,55,97,63   c-1.1,7.9-2.6,15.2-3.9,20.7c5.1,1.8,9.6,0,13.5-3.6C116.8,70.7,120.8,49.4,115.7,37z"></path></g></svg>