<svg height='100px' width='100px'  fill="#000000" xmlns="http://www.w3.org/2000/svg" xmlns:xlink="http://www.w3.org/1999/xlink" version="1.1" x="0px" y="0px" viewBox="0 0 32 32" enable-background="new 0 0 32 32" xml:space="preserve"><path d="M27.314,7.062C25.921,5.668,24.122,4.9,22.25,4.9c-2.438,0-4.725,1.298-6.25,3.51C14.475,6.198,12.188,4.9,9.75,4.9  c-1.872,0-3.671,0.768-5.065,2.162C3.747,8,2.221,10.06,2.543,13.311c0.34,3.425,2.902,8.946,13.18,15.798  c0.084,0.056,0.18,0.084,0.277,0.084s0.193-0.027,0.278-0.084c10.279-6.853,12.84-12.373,13.179-15.798  C29.779,10.06,28.253,8,27.314,7.062z M28.46,13.212c-0.315,3.18-2.739,8.332-12.461,14.879C6.278,21.544,3.853,16.392,3.538,13.212  c-0.281-2.841,1.041-4.63,1.854-5.443C6.597,6.564,8.145,5.9,9.75,5.9c2.319,0,4.493,1.383,5.816,3.697  c0.178,0.312,0.69,0.312,0.868,0C17.757,7.282,19.932,5.9,22.25,5.9c1.605,0,3.152,0.664,4.355,1.869  C27.419,8.582,28.742,10.37,28.46,13.212z"></path></svg>